<?xml version="1.0" encoding="utf-8" standalone="no"?>
<!DOCTYPE svg PUBLIC "-//W3C//DTD SVG 1.1//EN"
  "http://www.w3.org/Graphics/SVG/1.1/DTD/svg11.dtd">
<svg xmlns:xlink="http://www.w3.org/1999/xlink" width="303.415125pt" height="297.190125pt" viewBox="0 0 303.415125 297.190125" xmlns="http://www.w3.org/2000/svg" version="1.1">
 <metadata>
  <rdf:RDF xmlns:dc="http://purl.org/dc/elements/1.1/" xmlns:cc="http://creativecommons.org/ns#" xmlns:rdf="http://www.w3.org/1999/02/22-rdf-syntax-ns#">
   <cc:Work>
    <dc:type rdf:resource="http://purl.org/dc/dcmitype/StillImage"/>
    <dc:date>2024-06-15T20:12:02.262964</dc:date>
    <dc:format>image/svg+xml</dc:format>
    <dc:creator>
     <cc:Agent>
      <dc:title>Matplotlib v3.7.2, https://matplotlib.org/</dc:title>
     </cc:Agent>
    </dc:creator>
   </cc:Work>
  </rdf:RDF>
 </metadata>
 <defs>
  <style type="text/css">*{stroke-linejoin: round; stroke-linecap: butt}</style>
 </defs>
 <g id="figure_1">
  <g id="patch_1">
   <path d="M 0 297.190125 
L 303.415125 297.190125 
L 303.415125 0 
L 0 0 
z
" style="fill: #ffffff"/>
  </g>
  <g id="axes_1">
   <g id="patch_2">
    <path d="M 30.103125 273.312 
L 296.215125 273.312 
L 296.215125 7.2 
L 30.103125 7.2 
z
" style="fill: #ffffff"/>
   </g>
   <g id="line2d_1">
    <path d="M 66.391125 261.216 
L 42.199125 261.216 
M 90.583125 261.216 
L 66.391125 261.216 
M 114.775125 261.216 
L 90.583125 261.216 
M 138.967125 261.216 
L 114.775125 261.216 
M 163.159125 261.216 
L 138.967125 261.216 
M 187.351125 261.216 
L 163.159125 261.216 
M 211.543125 261.216 
L 187.351125 261.216 
M 235.735125 261.216 
L 211.543125 261.216 
M 259.927125 261.216 
L 284.119125 261.216 
M 259.927125 261.216 
L 235.735125 261.216 
M 284.119125 237.024 
L 284.119125 261.216 
M 284.119125 212.832 
L 284.119125 237.024 
M 284.119125 188.64 
L 284.119125 212.832 
M 284.119125 164.448 
L 284.119125 188.64 
M 284.119125 140.256 
L 284.119125 164.448 
M 284.119125 116.064 
L 284.119125 140.256 
M 284.119125 91.872 
L 284.119125 116.064 
M 284.119125 67.68 
L 284.119125 91.872 
M 284.119125 43.488 
L 284.119125 19.296 
M 284.119125 43.488 
L 284.119125 67.68 
M 259.927125 19.296 
L 284.119125 19.296 
M 235.735125 19.296 
L 259.927125 19.296 
M 211.543125 19.296 
L 235.735125 19.296 
M 187.351125 19.296 
L 211.543125 19.296 
M 163.159125 19.296 
L 187.351125 19.296 
M 138.967125 19.296 
L 163.159125 19.296 
M 114.775125 19.296 
L 138.967125 19.296 
M 90.583125 19.296 
L 114.775125 19.296 
M 66.391125 19.296 
L 42.199125 19.296 
M 66.391125 19.296 
L 90.583125 19.296 
M 42.199125 43.488 
L 42.199125 19.296 
M 42.199125 67.68 
L 42.199125 43.488 
M 42.199125 91.872 
L 42.199125 67.68 
M 42.199125 116.064 
L 42.199125 91.872 
M 42.199125 140.256 
L 42.199125 116.064 
M 42.199125 164.448 
L 42.199125 140.256 
M 42.199125 188.64 
L 42.199125 164.448 
M 42.199125 212.832 
L 42.199125 188.64 
M 42.199125 237.024 
L 42.199125 261.216 
M 42.199125 237.024 
L 42.199125 212.832 
M 148.066977 99.137665 
L 161.501964 73.508224 
M 148.066977 99.137665 
L 130.242535 122.83513 
M 203.359785 126.055599 
L 229.906901 138.598839 
M 203.359785 126.055599 
L 197.065857 156.461268 
M 124.061932 155.164238 
L 96.411349 141.913161 
M 124.061932 155.164238 
L 146.953857 174.162732 
M 177.359526 180.45666 
L 164.816286 207.003776 
M 177.359526 180.45666 
L 146.953857 174.162732 
M 155.045218 45.869268 
L 163.159125 19.296 
M 155.045218 45.869268 
L 138.967125 19.296 
M 155.045218 45.869268 
L 161.501964 73.508224 
M 155.045218 45.869268 
L 129.098065 56.025458 
M 68.772393 148.369907 
L 42.199125 140.256 
M 68.772393 148.369907 
L 42.199125 164.448 
M 68.772393 148.369907 
L 96.411349 141.913161 
M 68.772393 148.369907 
L 78.928583 174.31706 
M 257.545857 132.142093 
L 284.119125 140.256 
M 257.545857 132.142093 
L 284.119125 116.064 
M 257.545857 132.142093 
L 229.906901 138.598839 
M 257.545857 132.142093 
L 247.389667 106.19494 
M 171.273032 234.642732 
L 163.159125 261.216 
M 171.273032 234.642732 
L 187.351125 261.216 
M 171.273032 234.642732 
L 164.816286 207.003776 
M 171.273032 234.642732 
L 197.220185 224.486542 
M 220.995811 42.92315 
L 235.735125 19.296 
M 220.995811 42.92315 
L 211.543125 19.296 
M 220.995811 42.92315 
L 242.871125 60.544 
M 220.995811 42.92315 
L 197.199715 55.858321 
M 65.826275 82.419314 
L 42.199125 67.68 
M 65.826275 82.419314 
L 42.199125 91.872 
M 65.826275 82.419314 
L 83.447125 60.544 
M 65.826275 82.419314 
L 78.761446 106.21541 
M 260.491975 198.092686 
L 284.119125 212.832 
M 260.491975 198.092686 
L 284.119125 188.64 
M 260.491975 198.092686 
L 242.871125 219.968 
M 260.491975 198.092686 
L 247.556804 174.29659 
M 105.322439 237.58885 
L 90.583125 261.216 
M 105.322439 237.58885 
L 114.775125 261.216 
M 105.322439 237.58885 
L 83.447125 219.968 
M 105.322439 237.58885 
L 129.118535 224.653679 
M 260.062376 82.121471 
L 284.119125 91.872 
M 260.062376 82.121471 
L 284.119125 67.68 
M 260.062376 82.121471 
L 242.871125 60.544 
M 260.062376 82.121471 
L 247.389667 106.19494 
M 105.024596 43.352749 
L 114.775125 19.296 
M 105.024596 43.352749 
L 90.583125 19.296 
M 105.024596 43.352749 
L 83.447125 60.544 
M 105.024596 43.352749 
L 129.098065 56.025458 
M 221.293654 237.159251 
L 211.543125 261.216 
M 221.293654 237.159251 
L 235.735125 261.216 
M 221.293654 237.159251 
L 242.871125 219.968 
M 221.293654 237.159251 
L 197.220185 224.486542 
M 66.255874 198.390529 
L 42.199125 188.64 
M 66.255874 198.390529 
L 42.199125 212.832 
M 66.255874 198.390529 
L 83.447125 219.968 
M 66.255874 198.390529 
L 78.928583 174.31706 
M 188.347987 80.917143 
L 213.271125 90.144 
M 188.347987 80.917143 
L 161.501964 73.508224 
M 188.347987 80.917143 
L 197.199715 55.858321 
M 188.347987 80.917143 
L 179.364393 106.349268 
M 103.820268 115.067138 
L 113.047125 90.144 
M 103.820268 115.067138 
L 96.411349 141.913161 
M 103.820268 115.067138 
L 78.761446 106.21541 
M 103.820268 115.067138 
L 130.242535 122.83513 
M 222.497982 165.444862 
L 213.271125 190.368 
M 222.497982 165.444862 
L 229.906901 138.598839 
M 222.497982 165.444862 
L 247.556804 174.29659 
M 222.497982 165.444862 
L 197.065857 156.461268 
M 137.970263 199.594857 
L 113.047125 190.368 
M 137.970263 199.594857 
L 164.816286 207.003776 
M 137.970263 199.594857 
L 129.118535 224.653679 
M 137.970263 199.594857 
L 146.953857 174.162732 
M 135.266932 79.649957 
L 113.047125 90.144 
M 135.266932 79.649957 
L 161.501964 73.508224 
M 135.266932 79.649957 
L 129.098065 56.025458 
M 135.266932 79.649957 
L 148.066977 99.137665 
M 223.765168 112.363807 
L 213.271125 90.144 
M 223.765168 112.363807 
L 229.906901 138.598839 
M 223.765168 112.363807 
L 247.389667 106.19494 
M 223.765168 112.363807 
L 203.359785 126.055599 
M 102.553082 168.148193 
L 113.047125 190.368 
M 102.553082 168.148193 
L 96.411349 141.913161 
M 102.553082 168.148193 
L 78.928583 174.31706 
M 102.553082 168.148193 
L 124.061932 155.164238 
M 191.051318 200.862043 
L 213.271125 190.368 
M 191.051318 200.862043 
L 164.816286 207.003776 
M 191.051318 200.862043 
L 197.220185 224.486542 
M 191.051318 200.862043 
L 177.359526 180.45666 
M 259.956613 43.458512 
L 284.119125 19.296 
M 259.956613 43.458512 
L 284.119125 43.488 
M 259.956613 43.458512 
L 259.927125 19.296 
M 259.956613 43.458512 
L 242.871125 60.544 
M 66.361637 43.458512 
L 42.199125 19.296 
M 66.361637 43.458512 
L 66.391125 19.296 
M 66.361637 43.458512 
L 42.199125 43.488 
M 66.361637 43.458512 
L 83.447125 60.544 
M 259.956613 237.053488 
L 284.119125 261.216 
M 259.956613 237.053488 
L 259.927125 261.216 
M 259.956613 237.053488 
L 284.119125 237.024 
M 259.956613 237.053488 
L 242.871125 219.968 
M 66.361637 237.053488 
L 42.199125 261.216 
M 66.361637 237.053488 
L 66.391125 261.216 
M 66.361637 237.053488 
L 42.199125 237.024 
M 66.361637 237.053488 
L 83.447125 219.968 
M 180.112578 39.43552 
L 187.351125 19.296 
M 180.112578 39.43552 
L 163.159125 19.296 
M 180.112578 39.43552 
L 197.199715 55.858321 
M 180.112578 39.43552 
L 155.045218 45.869268 
M 62.338645 123.302547 
L 42.199125 116.064 
M 62.338645 123.302547 
L 42.199125 140.256 
M 62.338645 123.302547 
L 78.761446 106.21541 
M 62.338645 123.302547 
L 68.772393 148.369907 
M 263.979605 157.209453 
L 284.119125 164.448 
M 263.979605 157.209453 
L 284.119125 140.256 
M 263.979605 157.209453 
L 247.556804 174.29659 
M 263.979605 157.209453 
L 257.545857 132.142093 
M 146.205672 241.07648 
L 138.967125 261.216 
M 146.205672 241.07648 
L 163.159125 261.216 
M 146.205672 241.07648 
L 129.118535 224.653679 
M 146.205672 241.07648 
L 171.273032 234.642732 
M 234.271078 86.45702 
L 213.271125 90.144 
M 234.271078 86.45702 
L 242.871125 60.544 
M 234.271078 86.45702 
L 247.389667 106.19494 
M 234.271078 86.45702 
L 260.062376 82.121471 
M 234.271078 86.45702 
L 223.765168 112.363807 
M 109.360145 69.144047 
L 113.047125 90.144 
M 109.360145 69.144047 
L 83.447125 60.544 
M 109.360145 69.144047 
L 129.098065 56.025458 
M 109.360145 69.144047 
L 105.024596 43.352749 
M 109.360145 69.144047 
L 135.266932 79.649957 
M 216.958105 211.367953 
L 213.271125 190.368 
M 216.958105 211.367953 
L 242.871125 219.968 
M 216.958105 211.367953 
L 197.220185 224.486542 
M 216.958105 211.367953 
L 221.293654 237.159251 
M 216.958105 211.367953 
L 191.051318 200.862043 
M 92.047172 194.05498 
L 113.047125 190.368 
M 92.047172 194.05498 
L 83.447125 219.968 
M 92.047172 194.05498 
L 78.928583 174.31706 
M 92.047172 194.05498 
L 66.255874 198.390529 
M 92.047172 194.05498 
L 102.553082 168.148193 
M 218.267007 67.373899 
L 213.271125 90.144 
M 218.267007 67.373899 
L 242.871125 60.544 
M 218.267007 67.373899 
L 197.199715 55.858321 
M 218.267007 67.373899 
L 220.995811 42.92315 
M 218.267007 67.373899 
L 188.347987 80.917143 
M 218.267007 67.373899 
L 234.271078 86.45702 
M 90.277024 85.148118 
L 113.047125 90.144 
M 90.277024 85.148118 
L 83.447125 60.544 
M 90.277024 85.148118 
L 78.761446 106.21541 
M 90.277024 85.148118 
L 65.826275 82.419314 
M 90.277024 85.148118 
L 103.820268 115.067138 
M 90.277024 85.148118 
L 109.360145 69.144047 
M 236.041226 195.363882 
L 213.271125 190.368 
M 236.041226 195.363882 
L 242.871125 219.968 
M 236.041226 195.363882 
L 247.556804 174.29659 
M 236.041226 195.363882 
L 260.491975 198.092686 
M 236.041226 195.363882 
L 222.497982 165.444862 
M 236.041226 195.363882 
L 216.958105 211.367953 
M 108.051243 213.138101 
L 113.047125 190.368 
M 108.051243 213.138101 
L 83.447125 219.968 
M 108.051243 213.138101 
L 129.118535 224.653679 
M 108.051243 213.138101 
L 105.322439 237.58885 
M 108.051243 213.138101 
L 137.970263 199.594857 
M 108.051243 213.138101 
L 92.047172 194.05498 
M 159.782943 118.550096 
L 163.159125 140.256 
M 159.782943 118.550096 
L 179.364393 106.349268 
M 159.782943 118.550096 
L 130.242535 122.83513 
M 159.782943 118.550096 
L 148.066977 99.137665 
M 182.552365 130.294371 
L 163.159125 140.256 
M 182.552365 130.294371 
L 179.364393 106.349268 
M 182.552365 130.294371 
L 197.065857 156.461268 
M 182.552365 130.294371 
L 203.359785 126.055599 
M 182.552365 130.294371 
L 159.782943 118.550096 
M 141.167123 140.933036 
L 163.159125 140.256 
M 141.167123 140.933036 
L 130.242535 122.83513 
M 141.167123 140.933036 
L 124.061932 155.164238 
M 141.167123 140.933036 
L 159.782943 118.550096 
M 174.064772 159.317543 
L 163.159125 140.256 
M 174.064772 159.317543 
L 197.065857 156.461268 
M 174.064772 159.317543 
L 146.953857 174.162732 
M 174.064772 159.317543 
L 177.359526 180.45666 
M 174.064772 159.317543 
L 182.552365 130.294371 
M 199.919456 105.782565 
L 213.271125 90.144 
M 199.919456 105.782565 
L 179.364393 106.349268 
M 199.919456 105.782565 
L 203.359785 126.055599 
M 199.919456 105.782565 
L 188.347987 80.917143 
M 199.919456 105.782565 
L 223.765168 112.363807 
M 199.919456 105.782565 
L 182.552365 130.294371 
M 127.739289 102.719834 
L 113.047125 90.144 
M 127.739289 102.719834 
L 130.242535 122.83513 
M 127.739289 102.719834 
L 148.066977 99.137665 
M 127.739289 102.719834 
L 103.820268 115.067138 
M 127.739289 102.719834 
L 135.266932 79.649957 
M 197.63256 177.016331 
L 213.271125 190.368 
M 197.63256 177.016331 
L 197.065857 156.461268 
M 197.63256 177.016331 
L 177.359526 180.45666 
M 197.63256 177.016331 
L 222.497982 165.444862 
M 197.63256 177.016331 
L 191.051318 200.862043 
M 197.63256 177.016331 
L 174.064772 159.317543 
M 126.013136 175.447409 
L 113.047125 190.368 
M 126.013136 175.447409 
L 146.953857 174.162732 
M 126.013136 175.447409 
L 124.061932 155.164238 
M 126.013136 175.447409 
L 137.970263 199.594857 
M 126.013136 175.447409 
L 102.553082 168.148193 
M 199.440471 35.361798 
L 211.543125 19.296 
M 199.440471 35.361798 
L 187.351125 19.296 
M 199.440471 35.361798 
L 197.199715 55.858321 
M 199.440471 35.361798 
L 220.995811 42.92315 
M 199.440471 35.361798 
L 180.112578 39.43552 
M 58.264923 103.974654 
L 42.199125 91.872 
M 58.264923 103.974654 
L 42.199125 116.064 
M 58.264923 103.974654 
L 78.761446 106.21541 
M 58.264923 103.974654 
L 65.826275 82.419314 
M 58.264923 103.974654 
L 62.338645 123.302547 
M 268.053327 176.537346 
L 284.119125 188.64 
M 268.053327 176.537346 
L 284.119125 164.448 
M 268.053327 176.537346 
L 247.556804 174.29659 
M 268.053327 176.537346 
L 260.491975 198.092686 
M 268.053327 176.537346 
L 263.979605 157.209453 
M 126.877779 245.150202 
L 114.775125 261.216 
M 126.877779 245.150202 
L 138.967125 261.216 
M 126.877779 245.150202 
L 129.118535 224.653679 
M 126.877779 245.150202 
L 105.322439 237.58885 
M 126.877779 245.150202 
L 146.205672 241.07648 
M 266.64723 105.678901 
L 284.119125 116.064 
M 266.64723 105.678901 
L 284.119125 91.872 
M 266.64723 105.678901 
L 247.389667 106.19494 
M 266.64723 105.678901 
L 257.545857 132.142093 
M 266.64723 105.678901 
L 260.062376 82.121471 
M 197.736224 243.744105 
L 187.351125 261.216 
M 197.736224 243.744105 
L 211.543125 261.216 
M 197.736224 243.744105 
L 197.220185 224.486542 
M 197.736224 243.744105 
L 171.273032 234.642732 
M 197.736224 243.744105 
L 221.293654 237.159251 
M 128.582026 36.767895 
L 138.967125 19.296 
M 128.582026 36.767895 
L 114.775125 19.296 
M 128.582026 36.767895 
L 129.098065 56.025458 
M 128.582026 36.767895 
L 155.045218 45.869268 
M 128.582026 36.767895 
L 105.024596 43.352749 
M 59.67102 174.833099 
L 42.199125 164.448 
M 59.67102 174.833099 
L 42.199125 188.64 
M 59.67102 174.833099 
L 78.928583 174.31706 
M 59.67102 174.833099 
L 68.772393 148.369907 
M 59.67102 174.833099 
L 66.255874 198.390529 
M 240.598133 38.642682 
L 259.927125 19.296 
M 240.598133 38.642682 
L 235.735125 19.296 
M 240.598133 38.642682 
L 242.871125 60.544 
M 240.598133 38.642682 
L 220.995811 42.92315 
M 240.598133 38.642682 
L 259.956613 43.458512 
M 61.545807 62.816992 
L 42.199125 43.488 
M 61.545807 62.816992 
L 42.199125 67.68 
M 61.545807 62.816992 
L 83.447125 60.544 
M 61.545807 62.816992 
L 65.826275 82.419314 
M 61.545807 62.816992 
L 66.361637 43.458512 
M 264.772443 217.695008 
L 284.119125 237.024 
M 264.772443 217.695008 
L 284.119125 212.832 
M 264.772443 217.695008 
L 242.871125 219.968 
M 264.772443 217.695008 
L 260.491975 198.092686 
M 264.772443 217.695008 
L 259.956613 237.053488 
M 85.720117 241.869318 
L 66.391125 261.216 
M 85.720117 241.869318 
L 90.583125 261.216 
M 85.720117 241.869318 
L 83.447125 219.968 
M 85.720117 241.869318 
L 105.322439 237.58885 
M 85.720117 241.869318 
L 66.361637 237.053488 
M 264.772443 62.816992 
L 284.119125 67.68 
M 264.772443 62.816992 
L 284.119125 43.488 
M 264.772443 62.816992 
L 242.871125 60.544 
M 264.772443 62.816992 
L 260.062376 82.121471 
M 264.772443 62.816992 
L 259.956613 43.458512 
M 240.598133 241.869318 
L 235.735125 261.216 
M 240.598133 241.869318 
L 259.927125 261.216 
M 240.598133 241.869318 
L 242.871125 219.968 
M 240.598133 241.869318 
L 221.293654 237.159251 
M 240.598133 241.869318 
L 259.956613 237.053488 
M 85.720117 38.642682 
L 90.583125 19.296 
M 85.720117 38.642682 
L 66.391125 19.296 
M 85.720117 38.642682 
L 83.447125 60.544 
M 85.720117 38.642682 
L 105.024596 43.352749 
M 85.720117 38.642682 
L 66.361637 43.458512 
M 61.545807 217.695008 
L 42.199125 212.832 
M 61.545807 217.695008 
L 42.199125 237.024 
M 61.545807 217.695008 
L 83.447125 219.968 
M 61.545807 217.695008 
L 66.255874 198.390529 
M 61.545807 217.695008 
L 66.361637 237.053488 
M 166.777332 92.699379 
L 161.501964 73.508224 
M 166.777332 92.699379 
L 179.364393 106.349268 
M 166.777332 92.699379 
L 148.066977 99.137665 
M 166.777332 92.699379 
L 188.347987 80.917143 
M 166.777332 92.699379 
L 159.782943 118.550096 
M 116.891767 136.00486 
L 96.411349 141.913161 
M 116.891767 136.00486 
L 130.242535 122.83513 
M 116.891767 136.00486 
L 124.061932 155.164238 
M 116.891767 136.00486 
L 103.820268 115.067138 
M 116.891767 136.00486 
L 141.167123 140.933036 
M 213.207631 146.640142 
L 229.906901 138.598839 
M 213.207631 146.640142 
L 197.065857 156.461268 
M 213.207631 146.640142 
L 203.359785 126.055599 
M 213.207631 146.640142 
L 222.497982 165.444862 
M 156.774983 190.304506 
L 164.816286 207.003776 
M 156.774983 190.304506 
L 146.953857 174.162732 
M 156.774983 190.304506 
L 177.359526 180.45666 
M 156.774983 190.304506 
L 137.970263 199.594857 
M 176.441492 59.117695 
L 161.501964 73.508224 
M 176.441492 59.117695 
L 197.199715 55.858321 
M 176.441492 59.117695 
L 155.045218 45.869268 
M 176.441492 59.117695 
L 188.347987 80.917143 
M 176.441492 59.117695 
L 180.112578 39.43552 
M 82.02082 126.973633 
L 96.411349 141.913161 
M 82.02082 126.973633 
L 78.761446 106.21541 
M 82.02082 126.973633 
L 68.772393 148.369907 
M 82.02082 126.973633 
L 103.820268 115.067138 
M 82.02082 126.973633 
L 62.338645 123.302547 
M 244.29743 153.538367 
L 229.906901 138.598839 
M 244.29743 153.538367 
L 247.556804 174.29659 
M 244.29743 153.538367 
L 257.545857 132.142093 
M 244.29743 153.538367 
L 222.497982 165.444862 
M 244.29743 153.538367 
L 263.979605 157.209453 
M 149.876758 221.394305 
L 164.816286 207.003776 
M 149.876758 221.394305 
L 129.118535 224.653679 
M 149.876758 221.394305 
L 171.273032 234.642732 
M 149.876758 221.394305 
L 137.970263 199.594857 
M 149.876758 221.394305 
L 146.205672 241.07648 
M 145.657725 63.526032 
L 161.501964 73.508224 
M 145.657725 63.526032 
L 129.098065 56.025458 
M 145.657725 63.526032 
L 155.045218 45.869268 
M 145.657725 63.526032 
L 135.266932 79.649957 
M 86.429157 157.7574 
L 96.411349 141.913161 
M 86.429157 157.7574 
L 78.928583 174.31706 
M 86.429157 157.7574 
L 68.772393 148.369907 
M 86.429157 157.7574 
L 102.553082 168.148193 
M 239.889093 122.7546 
L 229.906901 138.598839 
M 239.889093 122.7546 
L 247.389667 106.19494 
M 239.889093 122.7546 
L 257.545857 132.142093 
M 239.889093 122.7546 
L 223.765168 112.363807 
M 180.660525 216.985968 
L 164.816286 207.003776 
M 180.660525 216.985968 
L 197.220185 224.486542 
M 180.660525 216.985968 
L 171.273032 234.642732 
M 180.660525 216.985968 
L 191.051318 200.862043 
M 151.766464 155.244456 
L 163.159125 140.256 
M 151.766464 155.244456 
L 146.953857 174.162732 
M 151.766464 155.244456 
L 124.061932 155.164238 
M 151.766464 155.244456 
L 141.167123 140.933036 
M 151.766464 155.244456 
L 174.064772 159.317543 
L 174.064772 159.317543 
" clip-path="url(#pcd03f27efe)" style="fill: none; stroke: #1f77b4; stroke-width: 1.5; stroke-linecap: square"/>
   </g>
   <g id="matplotlib.axis_1">
    <g id="xtick_1">
     <g id="line2d_2">
      <defs>
       <path id="m9101f151c2" d="M 0 0 
L 0 3.5 
" style="stroke: #000000; stroke-width: 0.8"/>
      </defs>
      <g>
       <use xlink:href="#m9101f151c2" x="42.199125" y="273.312" style="stroke: #000000; stroke-width: 0.8"/>
      </g>
     </g>
     <g id="text_1">
      <!-- 0.0 -->
      <g transform="translate(34.247563 287.910437) scale(0.1 -0.1)">
       <defs>
        <path id="DejaVuSans-30" d="M 2034 4250 
Q 1547 4250 1301 3770 
Q 1056 3291 1056 2328 
Q 1056 1369 1301 889 
Q 1547 409 2034 409 
Q 2525 409 2770 889 
Q 3016 1369 3016 2328 
Q 3016 3291 2770 3770 
Q 2525 4250 2034 4250 
z
M 2034 4750 
Q 2819 4750 3233 4129 
Q 3647 3509 3647 2328 
Q 3647 1150 3233 529 
Q 2819 -91 2034 -91 
Q 1250 -91 836 529 
Q 422 1150 422 2328 
Q 422 3509 836 4129 
Q 1250 4750 2034 4750 
z
" transform="scale(0.015625)"/>
        <path id="DejaVuSans-2e" d="M 684 794 
L 1344 794 
L 1344 0 
L 684 0 
L 684 794 
z
" transform="scale(0.015625)"/>
       </defs>
       <use xlink:href="#DejaVuSans-30"/>
       <use xlink:href="#DejaVuSans-2e" x="63.623047"/>
       <use xlink:href="#DejaVuSans-30" x="95.410156"/>
      </g>
     </g>
    </g>
    <g id="xtick_2">
     <g id="line2d_3">
      <g>
       <use xlink:href="#m9101f151c2" x="90.583125" y="273.312" style="stroke: #000000; stroke-width: 0.8"/>
      </g>
     </g>
     <g id="text_2">
      <!-- 0.2 -->
      <g transform="translate(82.631563 287.910437) scale(0.1 -0.1)">
       <defs>
        <path id="DejaVuSans-32" d="M 1228 531 
L 3431 531 
L 3431 0 
L 469 0 
L 469 531 
Q 828 903 1448 1529 
Q 2069 2156 2228 2338 
Q 2531 2678 2651 2914 
Q 2772 3150 2772 3378 
Q 2772 3750 2511 3984 
Q 2250 4219 1831 4219 
Q 1534 4219 1204 4116 
Q 875 4013 500 3803 
L 500 4441 
Q 881 4594 1212 4672 
Q 1544 4750 1819 4750 
Q 2544 4750 2975 4387 
Q 3406 4025 3406 3419 
Q 3406 3131 3298 2873 
Q 3191 2616 2906 2266 
Q 2828 2175 2409 1742 
Q 1991 1309 1228 531 
z
" transform="scale(0.015625)"/>
       </defs>
       <use xlink:href="#DejaVuSans-30"/>
       <use xlink:href="#DejaVuSans-2e" x="63.623047"/>
       <use xlink:href="#DejaVuSans-32" x="95.410156"/>
      </g>
     </g>
    </g>
    <g id="xtick_3">
     <g id="line2d_4">
      <g>
       <use xlink:href="#m9101f151c2" x="138.967125" y="273.312" style="stroke: #000000; stroke-width: 0.8"/>
      </g>
     </g>
     <g id="text_3">
      <!-- 0.4 -->
      <g transform="translate(131.015563 287.910437) scale(0.1 -0.1)">
       <defs>
        <path id="DejaVuSans-34" d="M 2419 4116 
L 825 1625 
L 2419 1625 
L 2419 4116 
z
M 2253 4666 
L 3047 4666 
L 3047 1625 
L 3713 1625 
L 3713 1100 
L 3047 1100 
L 3047 0 
L 2419 0 
L 2419 1100 
L 313 1100 
L 313 1709 
L 2253 4666 
z
" transform="scale(0.015625)"/>
       </defs>
       <use xlink:href="#DejaVuSans-30"/>
       <use xlink:href="#DejaVuSans-2e" x="63.623047"/>
       <use xlink:href="#DejaVuSans-34" x="95.410156"/>
      </g>
     </g>
    </g>
    <g id="xtick_4">
     <g id="line2d_5">
      <g>
       <use xlink:href="#m9101f151c2" x="187.351125" y="273.312" style="stroke: #000000; stroke-width: 0.8"/>
      </g>
     </g>
     <g id="text_4">
      <!-- 0.6 -->
      <g transform="translate(179.399563 287.910437) scale(0.1 -0.1)">
       <defs>
        <path id="DejaVuSans-36" d="M 2113 2584 
Q 1688 2584 1439 2293 
Q 1191 2003 1191 1497 
Q 1191 994 1439 701 
Q 1688 409 2113 409 
Q 2538 409 2786 701 
Q 3034 994 3034 1497 
Q 3034 2003 2786 2293 
Q 2538 2584 2113 2584 
z
M 3366 4563 
L 3366 3988 
Q 3128 4100 2886 4159 
Q 2644 4219 2406 4219 
Q 1781 4219 1451 3797 
Q 1122 3375 1075 2522 
Q 1259 2794 1537 2939 
Q 1816 3084 2150 3084 
Q 2853 3084 3261 2657 
Q 3669 2231 3669 1497 
Q 3669 778 3244 343 
Q 2819 -91 2113 -91 
Q 1303 -91 875 529 
Q 447 1150 447 2328 
Q 447 3434 972 4092 
Q 1497 4750 2381 4750 
Q 2619 4750 2861 4703 
Q 3103 4656 3366 4563 
z
" transform="scale(0.015625)"/>
       </defs>
       <use xlink:href="#DejaVuSans-30"/>
       <use xlink:href="#DejaVuSans-2e" x="63.623047"/>
       <use xlink:href="#DejaVuSans-36" x="95.410156"/>
      </g>
     </g>
    </g>
    <g id="xtick_5">
     <g id="line2d_6">
      <g>
       <use xlink:href="#m9101f151c2" x="235.735125" y="273.312" style="stroke: #000000; stroke-width: 0.8"/>
      </g>
     </g>
     <g id="text_5">
      <!-- 0.8 -->
      <g transform="translate(227.783562 287.910437) scale(0.1 -0.1)">
       <defs>
        <path id="DejaVuSans-38" d="M 2034 2216 
Q 1584 2216 1326 1975 
Q 1069 1734 1069 1313 
Q 1069 891 1326 650 
Q 1584 409 2034 409 
Q 2484 409 2743 651 
Q 3003 894 3003 1313 
Q 3003 1734 2745 1975 
Q 2488 2216 2034 2216 
z
M 1403 2484 
Q 997 2584 770 2862 
Q 544 3141 544 3541 
Q 544 4100 942 4425 
Q 1341 4750 2034 4750 
Q 2731 4750 3128 4425 
Q 3525 4100 3525 3541 
Q 3525 3141 3298 2862 
Q 3072 2584 2669 2484 
Q 3125 2378 3379 2068 
Q 3634 1759 3634 1313 
Q 3634 634 3220 271 
Q 2806 -91 2034 -91 
Q 1263 -91 848 271 
Q 434 634 434 1313 
Q 434 1759 690 2068 
Q 947 2378 1403 2484 
z
M 1172 3481 
Q 1172 3119 1398 2916 
Q 1625 2713 2034 2713 
Q 2441 2713 2670 2916 
Q 2900 3119 2900 3481 
Q 2900 3844 2670 4047 
Q 2441 4250 2034 4250 
Q 1625 4250 1398 4047 
Q 1172 3844 1172 3481 
z
" transform="scale(0.015625)"/>
       </defs>
       <use xlink:href="#DejaVuSans-30"/>
       <use xlink:href="#DejaVuSans-2e" x="63.623047"/>
       <use xlink:href="#DejaVuSans-38" x="95.410156"/>
      </g>
     </g>
    </g>
    <g id="xtick_6">
     <g id="line2d_7">
      <g>
       <use xlink:href="#m9101f151c2" x="284.119125" y="273.312" style="stroke: #000000; stroke-width: 0.8"/>
      </g>
     </g>
     <g id="text_6">
      <!-- 1.0 -->
      <g transform="translate(276.167562 287.910437) scale(0.1 -0.1)">
       <defs>
        <path id="DejaVuSans-31" d="M 794 531 
L 1825 531 
L 1825 4091 
L 703 3866 
L 703 4441 
L 1819 4666 
L 2450 4666 
L 2450 531 
L 3481 531 
L 3481 0 
L 794 0 
L 794 531 
z
" transform="scale(0.015625)"/>
       </defs>
       <use xlink:href="#DejaVuSans-31"/>
       <use xlink:href="#DejaVuSans-2e" x="63.623047"/>
       <use xlink:href="#DejaVuSans-30" x="95.410156"/>
      </g>
     </g>
    </g>
   </g>
   <g id="matplotlib.axis_2">
    <g id="ytick_1">
     <g id="line2d_8">
      <defs>
       <path id="m8ddb23fc60" d="M 0 0 
L -3.5 0 
" style="stroke: #000000; stroke-width: 0.8"/>
      </defs>
      <g>
       <use xlink:href="#m8ddb23fc60" x="30.103125" y="261.216" style="stroke: #000000; stroke-width: 0.8"/>
      </g>
     </g>
     <g id="text_7">
      <!-- 0.0 -->
      <g transform="translate(7.2 265.015219) scale(0.1 -0.1)">
       <use xlink:href="#DejaVuSans-30"/>
       <use xlink:href="#DejaVuSans-2e" x="63.623047"/>
       <use xlink:href="#DejaVuSans-30" x="95.410156"/>
      </g>
     </g>
    </g>
    <g id="ytick_2">
     <g id="line2d_9">
      <g>
       <use xlink:href="#m8ddb23fc60" x="30.103125" y="212.832" style="stroke: #000000; stroke-width: 0.8"/>
      </g>
     </g>
     <g id="text_8">
      <!-- 0.2 -->
      <g transform="translate(7.2 216.631219) scale(0.1 -0.1)">
       <use xlink:href="#DejaVuSans-30"/>
       <use xlink:href="#DejaVuSans-2e" x="63.623047"/>
       <use xlink:href="#DejaVuSans-32" x="95.410156"/>
      </g>
     </g>
    </g>
    <g id="ytick_3">
     <g id="line2d_10">
      <g>
       <use xlink:href="#m8ddb23fc60" x="30.103125" y="164.448" style="stroke: #000000; stroke-width: 0.8"/>
      </g>
     </g>
     <g id="text_9">
      <!-- 0.4 -->
      <g transform="translate(7.2 168.247219) scale(0.1 -0.1)">
       <use xlink:href="#DejaVuSans-30"/>
       <use xlink:href="#DejaVuSans-2e" x="63.623047"/>
       <use xlink:href="#DejaVuSans-34" x="95.410156"/>
      </g>
     </g>
    </g>
    <g id="ytick_4">
     <g id="line2d_11">
      <g>
       <use xlink:href="#m8ddb23fc60" x="30.103125" y="116.064" style="stroke: #000000; stroke-width: 0.8"/>
      </g>
     </g>
     <g id="text_10">
      <!-- 0.6 -->
      <g transform="translate(7.2 119.863219) scale(0.1 -0.1)">
       <use xlink:href="#DejaVuSans-30"/>
       <use xlink:href="#DejaVuSans-2e" x="63.623047"/>
       <use xlink:href="#DejaVuSans-36" x="95.410156"/>
      </g>
     </g>
    </g>
    <g id="ytick_5">
     <g id="line2d_12">
      <g>
       <use xlink:href="#m8ddb23fc60" x="30.103125" y="67.68" style="stroke: #000000; stroke-width: 0.8"/>
      </g>
     </g>
     <g id="text_11">
      <!-- 0.8 -->
      <g transform="translate(7.2 71.479219) scale(0.1 -0.1)">
       <use xlink:href="#DejaVuSans-30"/>
       <use xlink:href="#DejaVuSans-2e" x="63.623047"/>
       <use xlink:href="#DejaVuSans-38" x="95.410156"/>
      </g>
     </g>
    </g>
    <g id="ytick_6">
     <g id="line2d_13">
      <g>
       <use xlink:href="#m8ddb23fc60" x="30.103125" y="19.296" style="stroke: #000000; stroke-width: 0.8"/>
      </g>
     </g>
     <g id="text_12">
      <!-- 1.0 -->
      <g transform="translate(7.2 23.095219) scale(0.1 -0.1)">
       <use xlink:href="#DejaVuSans-31"/>
       <use xlink:href="#DejaVuSans-2e" x="63.623047"/>
       <use xlink:href="#DejaVuSans-30" x="95.410156"/>
      </g>
     </g>
    </g>
   </g>
   <g id="line2d_14"/>
   <g id="patch_3">
    <path d="M 30.103125 273.312 
L 30.103125 7.2 
" style="fill: none; stroke: #000000; stroke-width: 0.8; stroke-linejoin: miter; stroke-linecap: square"/>
   </g>
   <g id="patch_4">
    <path d="M 296.215125 273.312 
L 296.215125 7.2 
" style="fill: none; stroke: #000000; stroke-width: 0.8; stroke-linejoin: miter; stroke-linecap: square"/>
   </g>
   <g id="patch_5">
    <path d="M 30.103125 273.312 
L 296.215125 273.312 
" style="fill: none; stroke: #000000; stroke-width: 0.8; stroke-linejoin: miter; stroke-linecap: square"/>
   </g>
   <g id="patch_6">
    <path d="M 30.103125 7.2 
L 296.215125 7.2 
" style="fill: none; stroke: #000000; stroke-width: 0.8; stroke-linejoin: miter; stroke-linecap: square"/>
   </g>
  </g>
 </g>
 <defs>
  <clipPath id="pcd03f27efe">
   <rect x="30.103125" y="7.2" width="266.112" height="266.112"/>
  </clipPath>
 </defs>
</svg>
